HIERARCHY
ROOT Pelvis
{
	OFFSET 0.000000 0.000000 0.000000
	CHANNELS 6 Xposition Yposition Zposition Xrotation Yrotation Zrotation
	JOINT LeftUpLeg_virtual
	{
		OFFSET 0.000000 0.000000 0.000000
		CHANNELS 3 Xrotation Yrotation Zrotation
		JOINT LeftUpLeg
		{
			OFFSET 18.735201 -5.666702 -4.541200
			CHANNELS 3 Xrotation Yrotation Zrotation
			JOINT LeftLeg
			{
				OFFSET -0.021200 -31.938179 0.493100
				CHANNELS 3 Xrotation Yrotation Zrotation
				JOINT LeftFoot
				{
					OFFSET 0.021200 -31.938179 -4.336299
					CHANNELS 3 Xrotation Yrotation Zrotation
					JOINT LeftToeBase
					{
						OFFSET 0.943001 -26.722000 15.023500
						CHANNELS 3 Xrotation Yrotation Zrotation
						End Site
						{
							OFFSET 0 0 0
						}
					}
				}
			}
		}
	}
	JOINT RightUpLeg_virtual
	{
		OFFSET 0.000000 0.000000 0.000000
		CHANNELS 3 Xrotation Yrotation Zrotation
		JOINT RightUpLeg
		{
			OFFSET -18.735201 -5.666702 -4.541200
			CHANNELS 3 Xrotation Yrotation Zrotation
			JOINT RightLeg
			{
				OFFSET 0.018946 -31.938133 0.493100
				CHANNELS 3 Xrotation Yrotation Zrotation
				JOINT RightFoot
				{
					OFFSET -0.018946 -31.938126 -4.336299
					CHANNELS 3 Xrotation Yrotation Zrotation
					JOINT RightToeBase
					{
						OFFSET -0.943001 -26.722004 15.023500
						CHANNELS 3 Xrotation Yrotation Zrotation
						End Site
						{
							OFFSET 0 0 0
						}
					}
				}
			}
		}
	}
	JOINT Hips_virtual
	{
		OFFSET 0.000000 0.000000 0.000000
		CHANNELS 3 Xrotation Yrotation Zrotation
		JOINT Hips
		{
			OFFSET -0.000000 -0.000000 -0.000000
			CHANNELS 3 Xrotation Yrotation Zrotation
			JOINT Spine
			{
				OFFSET 0.000000 10.199997 -0.299500
				CHANNELS 3 Xrotation Yrotation Zrotation
				JOINT Spine1
				{
					OFFSET 0.000000 11.900002 -1.516600
					CHANNELS 3 Xrotation Yrotation Zrotation
					JOINT Spine2
					{
						OFFSET 0.000000 13.600006 -2.842500
						CHANNELS 3 Xrotation Yrotation Zrotation
						JOINT Neck_virtual
						{
							OFFSET 0.000000 0.000000 0.000000
							CHANNELS 3 Xrotation Yrotation Zrotation
							JOINT Neck
							{
								OFFSET 0.000000 9.624100 -2.890100
								CHANNELS 3 Xrotation Yrotation Zrotation
								JOINT Head
								{
									OFFSET 0.000000 14.068802 -1.351900
									CHANNELS 3 Xrotation Yrotation Zrotation
									End Site
									{
										OFFSET 0 0 0
									}
								}
							}
						}
						JOINT LeftShoulder_virtual
						{
							OFFSET 0.000000 0.000000 0.000000
							CHANNELS 3 Xrotation Yrotation Zrotation
							JOINT LeftShoulder
							{
								OFFSET 15.263000 10.923401 -0.547700
								CHANNELS 3 Xrotation Yrotation Zrotation
								JOINT LeftArm
								{
									OFFSET 25.438599 -2.830597 -13.032500
									CHANNELS 3 Xrotation Yrotation Zrotation
									JOINT LeftForeArm
									{
										OFFSET 29.960503 0.000000 0.000000
										CHANNELS 3 Xrotation Yrotation Zrotation
										JOINT LeftHand
										{
											OFFSET 27.849251 0.000000 0.000000
											CHANNELS 3 Xrotation Yrotation Zrotation
											End Site
											{
												OFFSET 0 0 0
											}
										}
									}
								}
							}
						}
						JOINT RightShoulder_virtual
						{
							OFFSET 0.000000 0.000000 0.000000
							CHANNELS 3 Xrotation Yrotation Zrotation
							JOINT RightShoulder
							{
								OFFSET -15.263000 10.923401 -0.547700
								CHANNELS 3 Xrotation Yrotation Zrotation
								JOINT RightArm
								{
									OFFSET -25.438599 -2.830597 -13.032500
									CHANNELS 3 Xrotation Yrotation Zrotation
									JOINT RightForeArm
									{
										OFFSET -29.960503 0.000000 0.000000
										CHANNELS 3 Xrotation Yrotation Zrotation
										JOINT RightHand
										{
											OFFSET -27.849251 0.000000 0.000000
											CHANNELS 3 Xrotation Yrotation Zrotation
											End Site
											{
												OFFSET 0 0 0
											}
										}
									}
								}
							}
						}
					}
				}
			}
		}
	}
}
MOTION
Frames: 4
Frame Time: 0.03333333
0.928476 55.861904 5.522981 0.000000 0.000000 0.000000 -21.231337 -16.940445 2.800832 -69.742133 -1.230364 22.688948 78.670092 -0.447553 0.335020 21.515386 -2.195352 -5.044432 0.000000 0.000000 0.000000 -28.835508 10.236306 0.745529 -67.276291 4.044228 -15.774412 79.068292 -1.144291 -2.527687 21.305686 -0.324313 6.725267 0.000000 0.000000 0.000000 1.575613 -0.728688 0.064227 6.571890 4.365300 -0.726871 9.539989 -0.092898 -1.285996 3.926671 0.548113 -0.731683 0.000000 0.000000 0.000000 2.356744 0.179551 -0.317834 -1.039475 -0.262879 0.276746 0.000000 0.000000 0.000000 2.649652 -0.491613 -0.933337 -0.006364 -12.287014 -6.916351 -3.864081 -21.059015 -52.501769 5.996988 -56.404016 -0.478882 0.000000 0.000000 0.000000 2.411690 -0.403572 0.791268 -0.089773 1.331996 9.855761 0.007737 22.753141 45.447485 6.309547 66.102509 0.118044 0.000000 0.000000 0.000000 
0.942416 55.879597 5.403713 0.000000 0.000000 0.000000 -21.347915 -17.178778 2.658625 -69.858574 -1.252587 22.604798 78.766069 -0.421721 0.360401 21.674876 -2.185804 -4.987524 0.000000 0.000000 0.000000 -28.988549 10.204408 0.722778 -67.433788 4.067247 -15.794100 79.072554 -1.149516 -2.482011 21.421748 -0.346334 6.768799 0.000000 0.000000 0.000000 1.597130 -0.738492 0.068929 6.558882 4.285555 -0.691667 9.590933 -0.120987 -1.335357 3.962547 0.555573 -0.749857 0.000000 0.000000 0.000000 2.461501 0.181292 -0.339835 -1.002357 -0.271618 0.277240 0.000000 0.000000 0.000000 2.767972 -0.499183 -0.945047 0.067908 -12.419855 -6.873192 -3.995543 -21.152486 -52.502021 5.999310 -56.603103 -0.453235 0.000000 0.000000 0.000000 2.500173 -0.377286 0.785968 -0.011979 1.246523 9.906170 -0.232110 22.840325 45.221781 6.178607 66.239926 0.149477 0.000000 0.000000 0.000000 
0.973284 55.912590 5.189410 0.000000 0.000000 0.000000 -21.556762 -17.621038 2.392138 -70.063568 -1.291399 22.446819 78.936196 -0.377563 0.402869 21.956990 -2.168920 -4.892610 0.000000 0.000000 0.000000 -29.261152 10.142399 0.670604 -67.714796 4.111185 -15.838655 79.067212 -1.154866 -2.394109 21.619029 -0.384806 6.860716 0.000000 0.000000 0.000000 1.638967 -0.755672 0.085506 6.521968 4.171399 -0.607402 9.680302 -0.166620 -1.428674 4.032161 0.567943 -0.788003 0.000000 0.000000 0.000000 2.661233 0.185824 -0.380970 -0.930068 -0.289366 0.278415 0.000000 0.000000 0.000000 2.991488 -0.512939 -0.970368 0.205633 -12.667714 -6.797138 -4.241470 -21.324312 -52.484065 5.997289 -56.993083 -0.403848 0.000000 0.000000 0.000000 2.675556 -0.326749 0.776680 0.136843 1.091187 9.996772 -0.715075 23.008542 44.805208 5.921170 66.492711 0.222105 0.000000 0.000000 0.000000 
1.024082 55.957474 4.918875 0.000000 0.000000 0.000000 -21.815737 -18.207039 2.035116 -70.310042 -1.338062 22.234149 79.143075 -0.326140 0.449437 22.301022 -2.147465 -4.788789 0.000000 0.000000 0.000000 -29.594260 10.053155 0.580365 -68.059536 4.171032 -15.914477 79.032617 -1.152452 -2.269716 21.844396 -0.430624 7.008105 0.000000 0.000000 0.000000 1.700900 -0.774639 0.124923 6.449314 4.089961 -0.456687 9.790718 -0.212923 -1.555931 4.131407 0.581113 -0.847704 0.000000 0.000000 0.000000 2.939531 0.194485 -0.436529 -0.826204 -0.316302 0.280521 0.000000 0.000000 0.000000 3.297439 -0.530015 -1.011295 0.388772 -12.998003 -6.704077 -4.579378 -21.548391 -52.415780 5.979438 -57.556713 -0.332295 0.000000 0.000000 0.000000 2.934468 -0.255213 0.765505 0.345680 0.893588 10.111299 -1.441294 23.252756 44.256204 5.546158 66.833831 0.349363 0.000000 0.000000 0.000000 
